<?xml version="1.0" encoding="UTF-8"?>
<svg xmlns="http://www.w3.org/2000/svg" xmlns:xlink="http://www.w3.org/1999/xlink" width="90pt" height="90pt" viewBox="0 0 90 90" version="1.1">
<g id="surface1">
<path style=" stroke:none;fill-rule:nonzero;fill:rgb(10.196078%,45.098039%,90.980392%);fill-opacity:1;" d="M 51.976562 5.011719 C 49.113281 4.109375 46.042969 3.613281 42.871094 3.613281 C 33.613281 3.613281 25.328125 7.792969 19.789062 14.371094 L 34.023438 26.339844 Z M 51.976562 5.011719 "/>
<path style=" stroke:none;fill-rule:nonzero;fill:rgb(91.764706%,26.27451%,20.784314%);fill-opacity:1;" d="M 19.789062 14.371094 C 15.222656 19.792969 12.722656 26.652344 12.730469 33.738281 C 12.730469 39.398438 13.855469 44.003906 15.714844 48.113281 L 34.023438 26.339844 Z M 19.789062 14.371094 "/>
<path style=" stroke:none;fill-rule:nonzero;fill:rgb(25.882353%,52.156863%,95.686275%);fill-opacity:1;" d="M 42.871094 22.230469 C 47.359375 22.234375 51.4375 24.84375 53.324219 28.914062 C 55.210938 32.984375 54.566406 37.78125 51.667969 41.207031 L 69.605469 19.878906 C 65.921875 12.785156 59.578125 7.445312 51.960938 5.03125 L 34.039062 26.359375 C 36.226562 23.738281 39.460938 22.230469 42.871094 22.230469 "/>
<path style=" stroke:none;fill-rule:nonzero;fill:rgb(98.431373%,73.72549%,1.568627%);fill-opacity:1;" d="M 42.871094 45.28125 C 36.511719 45.28125 31.347656 40.117188 31.347656 33.757812 C 31.339844 31.050781 32.292969 28.425781 34.039062 26.359375 L 15.714844 48.128906 C 18.851562 55.066406 24.050781 60.640625 29.402344 67.667969 L 51.667969 41.207031 C 49.480469 43.792969 46.261719 45.285156 42.871094 45.28125 "/>
<path style=" stroke:none;fill-rule:nonzero;fill:rgb(20.392157%,65.882353%,32.54902%);fill-opacity:1;" d="M 51.226562 74.878906 C 61.285156 59.160156 72.996094 52.015625 72.996094 33.738281 C 72.996094 28.726562 71.769531 24.003906 69.605469 19.84375 L 29.421875 67.667969 C 31.125 69.898438 32.847656 72.269531 34.519531 74.894531 C 40.621094 84.339844 38.933594 90 42.871094 90 C 46.808594 90 45.121094 84.324219 51.226562 74.878906 "/>
</g>
</svg>
